
<svg width="28px" height="29px" viewBox="0 0 28 29" version="1.1" xmlns="http://www.w3.org/2000/svg" xmlns:xlink="http://www.w3.org/1999/xlink">
    <g stroke="none" stroke-width="1" fill="none" fill-rule="evenodd">
        <g transform="translate(-25.000000, -24.000000)" fill="#F90000">
            <g transform="translate(25.000000, 23.000000)">
                <rect id="Rectangle" x="12.5" y="11" width="3" height="19" rx="1.5"></rect>
                <path d="M7.59979894,16.3285714 C4.35694178,13.2428571 4.62837035,8.45714282 7.61408465,5.67142852 C8.18551323,5.14285709 9.09979895,5.17142852 9.61408466,5.75714281 C10.1569418,6.32857138 10.1140847,7.22857138 9.54265609,7.77142853 C7.72837037,9.47142854 7.5569418,12.3571428 9.55694181,14.2571428 C10.1283704,14.8 10.1569418,15.7 9.61408466,16.2714286 C9.07122752,16.8428571 8.17122751,16.8714286 7.59979894,16.3285714 Z M6.59911452,18.4285714 C7.31340024,18.8571429 7.45625738,19.7142857 6.88482881,20.4285715 C6.59911452,20.8571429 6.17054309,21 5.74197166,21 C5.45625737,21 5.17054308,20.8571429 4.8848288,20.7142857 C2.02768593,18.5714286 0.170543059,14.8571429 0.0276859151,11 C-0.115171228,6.99999996 1.74197164,3.71428565 4.8848288,1.28571421 C5.45625737,0.857142781 6.45625738,0.857142781 6.88482881,1.5714285 C7.31340024,2.14285707 7.31340024,3.14285708 6.59911452,3.57142851 C4.17054308,5.42857138 2.88482879,7.99999996 2.88482879,11 C2.88482879,13.8571428 4.31340022,16.8571429 6.59911452,18.4285714 Z M18.3975265,16.2714286 C17.8546694,15.7 17.8832408,14.8 18.4403837,14.2428571 C20.4403837,12.3428571 20.2832408,9.45714282 18.4546694,7.75714282 C17.8832408,7.22857138 17.8403837,6.31428567 18.3832408,5.74285709 C18.9118122,5.17142852 19.8260979,5.12857137 20.3975265,5.67142852 C23.3832408,8.45714282 23.6546694,13.2428571 20.4118122,16.3285714 C19.8403837,16.8714286 18.9403837,16.8428571 18.3975265,16.2714286 Z M23.132597,1.28571421 C26.2754542,3.71428565 28.1183113,6.99999996 27.9897399,11 C27.9897399,14.8571429 26.1325971,18.5714286 23.132597,20.7142857 C22.8468828,20.8571429 22.5611685,21 22.2754542,21 C21.8468827,21 21.4183113,20.8571429 21.132597,20.4285715 C20.5611685,19.7142857 20.7040256,18.8571429 21.4183113,18.4285714 C23.7040256,16.8571429 25.132597,13.8571428 25.132597,11 C25.132597,7.99999996 23.8468828,5.42857138 21.4183113,3.57142851 C20.7040256,3.14285708 20.7040256,2.14285707 21.132597,1.5714285 C21.5611685,0.857142781 22.5611685,0.857142781 23.132597,1.28571421 Z" id="Shape"></path>
                <circle id="Oval" cx="14" cy="11" r="3"></circle>
            </g>
        </g>
    </g>
</svg>