<?xml version="1.0" encoding="UTF-8"?>
<!DOCTYPE svg
    PUBLIC '-//W3C//DTD SVG 1.1//EN'
    'http://www.w3.org/Graphics/SVG/1.1/DTD/svg11.dtd'>
<svg fill="#868686" height="24" version="1.1" viewBox="0 0 24 24" width="24" xmlns="http://www.w3.org/2000/svg"
     xmlns:xlink="http://www.w3.org/1999/xlink">
<g id="surface1">
<path d="M 8.9375 8.011719 C 8.410156 7.921875 8.03125 7.695312 7.824219 7.320312 C 7.683594 7.078125 7.617188 6.753906 7.617188 6.34375 L 8.25 6.34375 C 8.269531 6.671875 8.324219 6.910156 8.40625 7.058594 C 8.554688 7.328125 8.832031 7.480469 9.234375 7.511719 L 9.234375 5.5625 C 8.714844 5.464844 8.335938 5.300781 8.085938 5.074219 C 7.839844 4.84375 7.714844 4.527344 7.714844 4.121094 C 7.714844 3.757812 7.847656 3.433594 8.113281 3.140625 C 8.382812 2.851562 8.753906 2.703125 9.234375 2.695312 L 9.234375 2.222656 L 9.570312 2.222656 L 9.570312 2.691406 C 10.046875 2.722656 10.410156 2.863281 10.664062 3.109375 C 10.917969 3.355469 11.050781 3.679688 11.0625 4.085938 L 10.4375 4.085938 C 10.421875 3.90625 10.375 3.75 10.292969 3.617188 C 10.140625 3.375 9.902344 3.25 9.574219 3.238281 L 9.574219 4.980469 C 10.125 5.136719 10.503906 5.28125 10.699219 5.417969 C 11.023438 5.640625 11.183594 5.972656 11.183594 6.410156 C 11.183594 7.046875 10.976562 7.496094 10.566406 7.761719 C 10.394531 7.871094 10.152344 7.945312 9.871094 8 C 10.691406 8.027344 11.511719 8.160156 12.300781 8.398438 C 13.050781 7.65625 13.515625 6.625 13.515625 5.484375 C 13.515625 3.214844 11.671875 1.375 9.402344 1.375 C 7.128906 1.375 5.289062 3.214844 5.289062 5.484375 C 5.289062 6.660156 5.78125 7.714844 6.570312 8.464844 C 7.335938 8.210938 8.132812 8.0625 8.9375 8.011719 Z M 8.9375 8.011719 " style="stroke: none; fill-rule: nonzero; fill-opacity: 1;"></path>
<path d="M 8.597656 4.632812 C 8.753906 4.765625 8.96875 4.859375 9.234375 4.914062 L 9.234375 3.230469 C 8.917969 3.242188 8.695312 3.339844 8.5625 3.515625 C 8.429688 3.695312 8.363281 3.882812 8.363281 4.078125 C 8.363281 4.316406 8.441406 4.5 8.597656 4.632812 Z M 8.597656 4.632812 " style="stroke: none; fill-rule: nonzero; fill-opacity: 1;"></path>
<path d="M 10.539062 6.585938 C 10.539062 6.289062 10.429688 6.0625 10.210938 5.90625 C 10.085938 5.816406 9.875 5.730469 9.574219 5.648438 L 9.574219 7.53125 C 9.984375 7.511719 10.265625 7.363281 10.421875 7.082031 C 10.5 6.941406 10.539062 6.773438 10.539062 6.585938 Z M 10.539062 6.585938 " style="stroke: none; fill-rule: nonzero; fill-opacity: 1;"></path>
<path d="M 23.5 16.285156 C 24.003906 15.761719 24.050781 14.792969 23.96875 13.492188 C 23.375 13.453125 22.507812 13.550781 22.199219 13.492188 C 21.449219 12.003906 20.375 10.84375 18.847656 10.140625 C 18.898438 9.167969 19.03125 8.273438 19.59375 7.8125 C 18.226562 7.71875 17.070312 8.640625 16.332031 9.488281 C 15.671875 8.800781 14.691406 8.253906 13.542969 7.871094 L 12.824219 9.144531 C 10.691406 8.410156 8.351562 8.417969 6.234375 9.167969 L 5.296875 7.910156 C 5.292969 7.90625 5.289062 7.902344 5.289062 7.902344 C 3.824219 8.382812 2.480469 9.144531 1.433594 10.234375 C 0.753906 10.183594 0.832031 8.800781 1.714844 9.023438 C 0.277344 8.042969 -0.515625 10.730469 0.875 11.070312 C -0.28125 12.726562 -0.390625 16.285156 1.15625 17.589844 C 1.382812 19.550781 1.730469 21.390625 2.683594 22.625 L 5.8125 22.625 C 5.730469 21.988281 5.648438 21.3125 5.71875 20.570312 C 7.621094 21 9.878906 21.128906 12.144531 20.941406 C 12.492188 21.523438 12.832031 22.113281 13.25 22.625 L 16.347656 22.625 C 16.234375 21.804688 16.109375 20.945312 16.332031 20.105469 C 17.074219 19.960938 20.910156 18.984375 23.5 16.285156 Z M 19.226562 12.128906 C 19.652344 12.128906 19.996094 12.476562 19.996094 12.902344 C 19.996094 13.324219 19.652344 13.671875 19.226562 13.671875 C 18.800781 13.671875 18.457031 13.324219 18.457031 12.902344 C 18.457031 12.476562 18.800781 12.128906 19.226562 12.128906 Z M 19.226562 12.128906 " style="stroke: none; fill-rule: nonzero; fill-opacity: 1;"></path></g>
</svg>
