<svg xmlns="http://www.w3.org/2000/svg" xmlns:xlink="http://www.w3.org/1999/xlink" aria-hidden="true" focusable="false" width="24" height="24" style="-ms-transform: rotate(360deg); -webkit-transform: rotate(360deg); transform: rotate(360deg);" preserveAspectRatio="xMidYMid meet" viewBox="0 0 512 512"><path d="M376 160H272v153.37l52.69-52.68a16 16 0 0 1 22.62 22.62l-80 80a16 16 0 0 1-22.62 0l-80-80a16 16 0 0 1 22.62-22.62L240 313.37V160H136a56.06 56.06 0 0 0-56 56v208a56.06 56.06 0 0 0 56 56h240a56.06 56.06 0 0 0 56-56V216a56.06 56.06 0 0 0-56-56z" fill="#868686"/><path d="M272 48a16 16 0 0 0-32 0v112h32z" fill="#868686"/></svg>