<svg viewBox="0 0 52 52" fill="none" xmlns="http://www.w3.org/2000/svg">
<rect rx="26" fill="#0B292F"/>
<path fill="#0B292F" d="M5.07682 5.07682C11.8459 -1.69227 40.1541 -1.69227 46.9232 5.07682C53.6923 11.8462 53.6923 40.1541 46.9232 46.9232C40.1541 53.6923 11.8459 53.6923 5.07682 46.9232C-1.69227 40.1541 -1.69227 11.8459 5.07682 5.07682Z"/>
<path fill="#13F9A5" d="M18.562 9.49302C18.842 9.96905 18.6831 10.582 18.207 10.862C16.5397 11.8427 15.0359 12.8848 13.8328 14.1805C13.457 14.5852 12.8243 14.6086 12.4196 14.2328C12.0149 13.857 11.9914 13.2243 12.3672 12.8196C13.7641 11.3153 15.4603 10.1573 17.193 9.1381C17.669 8.85808 18.2819 9.01698 18.562 9.49302ZM22.8426 13.3702C23.3783 13.2362 23.7041 12.6933 23.5702 12.1575C23.4362 11.6217 22.8933 11.2959 22.3575 11.4299C17.6311 12.6115 13.8898 16.0432 12.0763 20.417C11.8647 20.9272 12.1068 21.5122 12.617 21.7238C13.1272 21.9353 13.7122 21.6932 13.9238 21.1831C15.5102 17.3569 18.7689 14.3886 22.8426 13.3702ZM26 17C21.0295 17 17 21.0295 17 26C17 30.6326 20.5001 34.4477 25 34.9451V36.9552C19.3935 36.45 15 31.7381 15 26C15 19.9249 19.9249 15 26 15C32.0751 15 37 19.9249 37 26C37 31.0351 33.617 35.2801 29 36.586V44C29 44.5523 28.5523 45 28 45C27.4477 45 27 44.5523 27 44V36.9552V34.9451V32.9291V30.9C29.2823 30.4368 31 28.419 31 26C31 23.2386 28.7614 21 26 21C23.2386 21 21 23.2386 21 26C21 28.419 22.7178 30.4368 25 30.9V32.9291C21.6077 32.4439 19 29.5265 19 26C19 22.134 22.134 19 26 19C29.866 19 33 22.134 33 26C33 28.7924 31.365 31.2029 29 32.3264V34.4879C32.4956 33.2524 35 29.9187 35 26C35 21.0295 30.9706 17 26 17ZM12.617 30.2763C13.1272 30.0648 13.7122 30.3069 13.9238 30.817C15.5102 34.6432 18.7689 37.6115 22.8426 38.6299C23.3783 38.7638 23.7041 39.3068 23.5702 39.8426C23.4362 40.3784 22.8933 40.7041 22.3575 40.5702C17.6311 39.3886 13.8898 35.9569 12.0763 31.5831C11.8647 31.0729 12.1068 30.4878 12.617 30.2763ZM40.0285 20.7286C39.8234 20.2159 39.2414 19.9664 38.7286 20.1716C38.2158 20.3767 37.9664 20.9586 38.1715 21.4714C38.7192 22.8406 39 24.4128 39 26C39 27.5873 38.7192 29.1595 38.1715 30.5286C37.9664 31.0414 38.2158 31.6234 38.7286 31.8285C39.2414 32.0336 39.8234 31.7842 40.0285 31.2714C40.6808 29.6406 41 27.8128 41 26C41 24.1873 40.6808 22.3595 40.0285 20.7286ZM13.8328 37.7196C13.457 37.3149 12.8243 37.2914 12.4196 37.6672C12.0149 38.043 11.9914 38.6758 12.3672 39.0805C13.7489 40.5685 15.4404 41.8353 17.2321 42.7838C17.7202 43.0422 18.3254 42.856 18.5838 42.3679C18.8422 41.8798 18.656 41.2747 18.1679 41.0163C16.5597 40.1648 15.0511 39.0316 13.8328 37.7196ZM43.776 22.6078C44.324 22.5393 44.8238 22.928 44.8923 23.476C45 24.338 45 25.1904 45 25.9729V25.973L45 26L45 26.0457C45.0001 26.8173 45.0002 27.7223 44.7702 28.6426C44.6362 29.1784 44.0933 29.5041 43.5575 29.3702C43.0217 29.2362 42.6959 28.6933 42.8299 28.1575C42.9953 27.496 43 26.8186 43 26C43 25.1899 42.9987 24.4521 42.9077 23.7241C42.8392 23.1761 43.228 22.6763 43.776 22.6078ZM29 26C29 27.6569 27.6569 29 26 29C24.3432 29 23 27.6569 23 26C23 24.3432 24.3432 23 26 23C27.6569 23 29 24.3432 29 26Z"/>
</svg>
