<?xml version="1.0" encoding="UTF-8" standalone="no"?>
<svg
    xmlns="http://www.w3.org/2000/svg"
    width="24"
    height="24"
    viewBox="0 0 24 24"
    color="#868686"
>
    <path
        fill="currentColor" stroke-width="0.5"
        d="M12 4.879a1.784 1.784 0 00-1.785 1.785v10.672A1.784 1.784 0 0012
    19.12a1.784 1.784 0 001.785-1.785V6.664A1.784 1.784 0 0012 4.88zm.002
    1.316a.401.401 0 01.4.402v10.387a.401.401 0 01-.4.402.401.401 0
    01-.402-.402V6.597a.401.401 0 01.402-.402z"
    />
    <g stroke="currentColor" stroke-linecap="round"
       stroke-width="1.3"
    >
        <path
            d="M17.705 15.36V8.74M15.395 15.956V9.093M19.748 13.551v-2.647M19.862 12.03h1.566M6.271 15.36V8.74M8.582 15.956V9.093M4.229 13.551v-2.647M4.115 12.03H2.549"/>
    </g>
</svg>
