<svg width="35" height="35" viewBox="0 0 35 35" fill="#868686" xmlns="http://www.w3.org/2000/svg">
<path d="M6.9375 6.93803C10.3549 3.52142 24.6451 3.52142 28.0625 6.93803C29.7711 8.64691 30.625 13.0735 30.625 17.5005C30.6249 21.9274 29.771 26.3532 28.0625 28.062C26.3538 29.7708 21.9272 30.6255 17.5 30.6255C13.0728 30.6255 8.64621 29.7708 6.9375 28.062C5.22902 26.3532 4.37506 21.9266 4.375 17.5005C4.375 13.0743 5.22895 8.64691 6.9375 6.93803ZM13.709 20.3706C13.4142 20.305 12.6608 20.7831 12.5938 21.0777C12.5609 21.225 12.6638 21.4878 12.8115 21.7212C12.8255 21.7432 12.8418 21.7643 12.8564 21.7857L12.8496 21.7906C13.6842 23.0422 15.0965 23.8106 16.6797 24.0083V25.7027H15.4492C15.1728 25.7027 14.8961 25.7563 14.7891 25.8628C14.6824 25.9695 14.629 26.2466 14.6289 26.523C14.6289 26.7993 14.6825 27.076 14.7891 27.1831C14.8692 27.2632 15.0448 27.3135 15.2441 27.3335L15.4492 27.3433H19.5508L19.7559 27.3335C19.9552 27.3135 20.1309 27.2632 20.2109 27.1831C20.3175 27.0761 20.3711 26.7994 20.3711 26.523C20.371 26.2466 20.3176 25.9696 20.2109 25.8628C20.1039 25.7564 19.827 25.7027 19.5508 25.7027H18.3203V24.0083C19.9035 23.8106 21.3158 23.0423 22.1504 21.7906L22.1426 21.7857C22.1574 21.7642 22.1744 21.7434 22.1885 21.7212C22.3363 21.4875 22.4393 21.2249 22.4062 21.0777C22.3386 20.783 21.5856 20.3059 21.291 20.3716C21.1437 20.4048 20.9506 20.6107 20.8027 20.8443C20.7918 20.8615 20.7828 20.8804 20.7725 20.898C20.154 21.8102 18.961 22.4214 17.5 22.4214C16.0416 22.4213 14.8498 21.8124 14.2305 20.9029C14.2191 20.8835 14.2093 20.8623 14.1973 20.8433C14.0493 20.6097 13.8562 20.4037 13.709 20.3706ZM17.5 12.5777C16.5966 12.5777 15.4768 12.8837 14.8965 13.7544C14.6213 14.1677 14.4632 14.7312 14.3672 15.2701C14.2671 15.8323 14.2188 16.4663 14.2188 17.0894C14.2188 17.7124 14.2671 18.3465 14.3672 18.9087C14.4631 19.4475 14.6213 20.0111 14.8965 20.4244C15.4767 21.2953 16.5965 21.6011 17.5 21.6011C18.4036 21.6011 19.5233 21.2954 20.1035 20.4244C20.3787 20.011 20.5369 19.4475 20.6328 18.9087C20.7329 18.3465 20.7812 17.7124 20.7812 17.0894C20.7812 16.734 20.7634 16.3749 20.7314 16.0279C20.5883 16.2351 20.1171 16.843 19.1406 17.2124H19.1377C19.1318 17.7157 19.0926 18.2055 19.0186 18.6216C18.9343 19.0947 18.822 19.3878 18.7373 19.5152C18.597 19.7252 18.1561 19.9605 17.5 19.9605C16.8439 19.9605 16.403 19.7252 16.2627 19.5152C16.178 19.3878 16.0657 19.0946 15.9814 18.6216C15.9014 18.1717 15.8594 17.6356 15.8594 17.0894C15.8594 16.5431 15.9013 16.0071 15.9814 15.5572C16.0657 15.084 16.178 14.7908 16.2627 14.6636C16.4033 14.4537 16.8442 14.2183 17.5 14.2183C17.7215 14.2183 17.9434 14.1769 18.0664 14.1031C18.2056 13.8321 18.2791 13.2743 18.3037 12.6597C18.2569 12.6491 18.209 12.6408 18.1611 12.6324C18.0585 12.6156 17.9563 12.6011 17.8555 12.5923C17.739 12.5825 17.6202 12.5777 17.5 12.5777ZM17.5 7.6558C16.5966 7.65582 15.4768 7.96179 14.8965 8.83256C14.6213 9.24578 14.4632 9.80937 14.3672 10.3482C14.2671 10.9104 14.2188 11.5445 14.2188 12.1675C14.2188 12.5229 14.2366 12.882 14.2686 13.229C14.4119 13.0216 14.8832 12.4137 15.8594 12.0445H15.8623C15.8682 11.5412 15.9074 11.0513 15.9814 10.6353C16.0657 10.1621 16.178 9.86893 16.2627 9.74174C16.4033 9.5318 16.8442 9.29644 17.5 9.29642C18.1558 9.29644 18.5967 9.53181 18.7373 9.74174C18.822 9.86895 18.9343 10.1621 19.0186 10.6353C19.0986 11.0852 19.1406 11.6213 19.1406 12.1675C19.1406 12.7138 19.0986 13.2498 19.0186 13.6997C18.9343 14.1728 18.822 14.4659 18.7373 14.5933C18.597 14.8033 18.1561 15.0386 17.5 15.0386C17.2787 15.0386 17.0567 15.0801 16.9336 15.1538C16.7943 15.4247 16.7209 15.9825 16.6963 16.5972C16.7431 16.6078 16.791 16.6162 16.8389 16.6245C16.9415 16.6413 17.0437 16.6558 17.1445 16.6646C17.261 16.6744 17.3798 16.6792 17.5 16.6792C18.4036 16.6792 19.5233 16.3735 20.1035 15.5025C20.3787 15.0892 20.5369 14.5257 20.6328 13.9869C20.7329 13.4246 20.7812 12.7905 20.7812 12.1675C20.7812 11.5445 20.7329 10.9104 20.6328 10.3482C20.5369 9.80939 20.3787 9.24578 20.1035 8.83256C19.5232 7.96182 18.4034 7.65581 17.5 7.6558Z"/>
</svg>
