<svg width="18px" height="18px" viewBox="0 0 18 18" version="1.1" xmlns="http://www.w3.org/2000/svg" xmlns:xlink="http://www.w3.org/1999/xlink">
    <g stroke="none" stroke-width="1" fill="none" fill-rule="evenodd">
        <g transform="translate(-324.000000, -29.000000)" fill="#BABABA">
            <g transform="translate(324.000000, 29.000000)">
                <path d="M17.604,15.696 L13.158,11.25 C13.941,10.089 14.4,8.703 14.4,7.19999999 C14.4,3.22199997 11.178,-4.49999789e-08 7.19999999,-4.49999789e-08 C3.22199997,-4.49999789e-08 -4.49999789e-08,3.22199997 -4.49999789e-08,7.19999999 C-4.49999789e-08,11.178 3.22199997,14.4 7.19999999,14.4 C8.703,14.4 10.089,13.941 11.25,13.158 L15.696,17.604 C15.939,17.847 16.281,18 16.65,18 C17.397,18 18,17.397 18,16.65 C18,16.281 17.847,15.939 17.604,15.696 Z M7.19999999,12.6 C4.22099998,12.6 1.79999996,10.179 1.79999996,7.19999999 C1.79999996,4.22099998 4.22099998,1.79999996 7.19999999,1.79999996 C10.179,1.79999996 12.6,4.22099998 12.6,7.19999999 C12.6,10.179 10.179,12.6 7.19999999,12.6 Z" id="Shape"></path>
            </g>
        </g>
    </g>
</svg>