<?xml version="1.0" encoding="UTF-8" standalone="no"?>
<!-- Created with Inkscape (http://www.inkscape.org/) -->

<svg
   width="256mm"
   height="256mm"
   viewBox="0 0 256 256"
   version="1.1"
   id="svg5"
   xml:space="preserve"
   inkscape:version="1.2.1 (9c6d41e410, 2022-07-14)"
   sodipodi:docname="icon-basic.svg"
   inkscape:export-filename="icon-basic.png"
   inkscape:export-xdpi="96"
   inkscape:export-ydpi="96"
   xmlns:inkscape="http://www.inkscape.org/namespaces/inkscape"
   xmlns:sodipodi="http://sodipodi.sourceforge.net/DTD/sodipodi-0.dtd"
   xmlns="http://www.w3.org/2000/svg"
   xmlns:svg="http://www.w3.org/2000/svg"><sodipodi:namedview
     id="namedview7"
     pagecolor="#ffffff"
     bordercolor="#000000"
     borderopacity="0.25"
     inkscape:showpageshadow="2"
     inkscape:pageopacity="0.0"
     inkscape:pagecheckerboard="0"
     inkscape:deskcolor="#d1d1d1"
     inkscape:document-units="mm"
     showgrid="false"
     inkscape:zoom="0.4091414"
     inkscape:cx="1269.7322"
     inkscape:cy="582.92805"
     inkscape:window-width="1920"
     inkscape:window-height="991"
     inkscape:window-x="-9"
     inkscape:window-y="-9"
     inkscape:window-maximized="1"
     inkscape:current-layer="layer1"
     showguides="true" /><defs
     id="defs2"><clipPath
       clipPathUnits="userSpaceOnUse"
       id="clipPath508"><rect
         style="fill:#6b21a8;fill-opacity:1;stroke-width:0.0569547"
         id="rect510"
         width="270.93329"
         height="270.93329"
         x="-124.01519"
         y="51.081829"
         rx="26.458332"
         ry="26.458332" /></clipPath><clipPath
       clipPathUnits="userSpaceOnUse"
       id="clipPath512"><rect
         style="fill:#6b21a8;fill-opacity:1;stroke-width:0.0569547"
         id="rect514"
         width="270.93329"
         height="270.93329"
         x="-124.01519"
         y="51.081829"
         rx="26.458332"
         ry="26.458332" /></clipPath><clipPath
       clipPathUnits="userSpaceOnUse"
       id="clipPath516"><rect
         style="fill:#6b21a8;fill-opacity:1;stroke-width:0.0569547"
         id="rect518"
         width="270.93329"
         height="270.93329"
         x="-124.01519"
         y="51.081829"
         rx="26.458332"
         ry="26.458332" /></clipPath><clipPath
       clipPathUnits="userSpaceOnUse"
       id="clipPath516-6"><rect
         style="fill:#6b21a8;fill-opacity:1;stroke-width:0.0569547"
         id="rect518-4"
         width="270.93329"
         height="270.93329"
         x="-124.01519"
         y="51.081829"
         rx="26.458332"
         ry="26.458332" /></clipPath><clipPath
       clipPathUnits="userSpaceOnUse"
       id="clipPath575"><rect
         style="fill:#6b21a8;fill-opacity:1;stroke-width:0.0713646"
         id="rect577"
         width="339.48129"
         height="339.48129"
         x="-158.28917"
         y="16.807848"
         rx="33.152473"
         ry="33.152473"
         clip-path="url(#clipPath516-6)"
         transform="matrix(0.85456852,0,0,0.85456852,1.6653694,27.130071)" /></clipPath><clipPath
       clipPathUnits="userSpaceOnUse"
       id="clipPath579"><rect
         style="fill:#6b21a8;fill-opacity:1;stroke-width:0.0713646"
         id="rect581"
         width="339.48129"
         height="339.48129"
         x="-158.28917"
         y="16.807848"
         rx="33.152473"
         ry="33.152473"
         clip-path="url(#clipPath516-6)"
         transform="matrix(0.85456852,0,0,0.85456852,1.6654277,27.130132)" /></clipPath><clipPath
       clipPathUnits="userSpaceOnUse"
       id="clipPath583"><rect
         style="fill:#6b21a8;fill-opacity:1;stroke-width:0.0713646"
         id="rect585"
         width="339.48129"
         height="339.48129"
         x="-158.28917"
         y="16.807848"
         rx="33.152473"
         ry="33.152473"
         clip-path="url(#clipPath516-6)"
         transform="matrix(0.85456852,0,0,0.85456852,1.6654277,27.130132)" /></clipPath><clipPath
       clipPathUnits="userSpaceOnUse"
       id="clipPath575-6"><rect
         style="fill:#6b21a8;fill-opacity:1;stroke-width:0.0713646"
         id="rect577-7"
         width="339.48129"
         height="339.48129"
         x="-158.28917"
         y="16.807848"
         rx="33.152473"
         ry="33.152473"
         clip-path="url(#clipPath516-6)"
         transform="matrix(0.85456852,0,0,0.85456852,1.6653694,27.130071)" /></clipPath><clipPath
       clipPathUnits="userSpaceOnUse"
       id="clipPath579-4"><rect
         style="fill:#6b21a8;fill-opacity:1;stroke-width:0.0713646"
         id="rect581-5"
         width="339.48129"
         height="339.48129"
         x="-158.28917"
         y="16.807848"
         rx="33.152473"
         ry="33.152473"
         clip-path="url(#clipPath516-6)"
         transform="matrix(0.85456852,0,0,0.85456852,1.6654277,27.130132)" /></clipPath><clipPath
       clipPathUnits="userSpaceOnUse"
       id="clipPath583-3"><rect
         style="fill:#6b21a8;fill-opacity:1;stroke-width:0.0713646"
         id="rect585-4"
         width="339.48129"
         height="339.48129"
         x="-158.28917"
         y="16.807848"
         rx="33.152473"
         ry="33.152473"
         clip-path="url(#clipPath516-6)"
         transform="matrix(0.85456852,0,0,0.85456852,1.6654277,27.130132)" /></clipPath><clipPath
       clipPathUnits="userSpaceOnUse"
       id="clipPath579-2"><rect
         style="fill:#6b21a8;fill-opacity:1;stroke-width:0.0713646"
         id="rect581-57"
         width="339.48129"
         height="339.48129"
         x="-158.28917"
         y="16.807848"
         rx="33.152473"
         ry="33.152473"
         clip-path="url(#clipPath516-6)"
         transform="matrix(0.85456852,0,0,0.85456852,1.6654277,27.130132)" /></clipPath><clipPath
       clipPathUnits="userSpaceOnUse"
       id="clipPath575-8"><rect
         style="fill:#6b21a8;fill-opacity:1;stroke-width:0.0713646"
         id="rect577-6"
         width="339.48129"
         height="339.48129"
         x="-158.28917"
         y="16.807848"
         rx="33.152473"
         ry="33.152473"
         clip-path="url(#clipPath516-6)"
         transform="matrix(0.85456852,0,0,0.85456852,1.6653694,27.130071)" /></clipPath></defs><g
     inkscape:label="Capa 1"
     inkscape:groupmode="layer"
     id="layer1"
     transform="translate(124.01517,-51.081848)"><path
       id="rect362-4-0"
       clip-path="none"
       style="fill:#6b21a8;fill-opacity:1;stroke:#5a2ca0;stroke-width:1.24166"
       d="m 3.3361583,82.864539 c -1.3800172,0 -16.1437683,49.566761 -21.1846883,71.122701 -0.794361,3.39672 -1.649119,6.17527 -1.898792,6.17527 -0.24969,0 -1.675929,-4.39244 -3.169244,-9.76147 -5.589738,-20.0972 -18.185025,-56.765335 -18.349772,-53.419927 -0.02701,0.5328 -0.949464,6.902387 -2.050219,14.154897 -2.779049,18.30992 -4.257901,32.25606 -4.886143,46.10111 l -0.534929,11.82052 -14.817676,-29.75043 -14.814727,-29.74745 -0.243868,18.72737 c -0.13339,10.29977 0.13718,26.94388 0.600822,36.98669 0.463477,10.04284 0.72154,18.38138 0.57426,18.52873 -0.147289,0.14732 -3.644805,-4.64581 -7.772188,-10.64839 -15.807444,-22.98947 -22.347154,-32.35318 -23.268334,-33.31301 -0.49122,-0.51177 -0.58973,0.20193 -0.27534,1.9932 0.26925,1.53407 1.39339,11.57453 2.49763,22.31258 1.10427,10.73807 2.16983,19.9721 2.36983,20.51996 0.19939,0.54789 0.18989,0.99611 -0.0226,0.99611 -0.21415,0 -4.68667,-3.21842 -9.93746,-7.15171 -5.25082,-3.93326 -9.54706,-6.9659 -9.54706,-6.74069 0,0.22525 0.71326,1.80647 1.58511,3.51539 0.87185,1.70898 4.67913,10.93097 8.4605,20.49048 7.25235,18.33441 10.00413,24.26245 15.830502,34.11731 10.778794,18.23165 27.96734,33.34799 44.864062,39.45579 0,0 3.252076,1.4991 4.99626,1.80441 32.764442,5.73519 66.953138,5.31831 99.787825,0 1.726099,-0.27958 4.977574,-1.6559 4.977574,-1.6559 2.737622,-0.91104 10.050858,-4.17409 13.478032,-6.12713 20.562401,-11.718 34.481995,-29.6075 47.135555,-60.57459 2.50728,-6.13599 6.42338,-15.69135 8.70239,-21.23287 l 4.14569,-10.07512 -6.05529,4.44362 c -3.3294,2.44405 -7.6059,5.70077 -9.50381,7.23626 l -3.45047,2.79167 0.43953,-2.73854 c 0.86503,-5.40138 4.50358,-42.41468 4.19977,-42.71848 -0.11018,-0.11033 -7.12889,9.66463 -15.59942,21.72061 -8.470532,12.05598 -15.494043,21.81403 -15.607283,21.68422 -0.113217,-0.12975 0.09496,-4.00201 0.462163,-8.60408 0.813601,-10.19742 1.796152,-65.34568 1.164255,-65.34568 -0.452152,0 -19.24274,37.51121 -25.946917,51.79847 l -3.550784,7.5706 -0.986262,-13.85307 c -0.92529,-13.00575 -2.534563,-26.50904 -5.377794,-45.11677 -0.669687,-4.38288 -1.219627,-8.93502 -1.222272,-10.11445 -0.0094,-4.712939 -1.609503,-2.565557 -5.012969,6.72887 -4.553659,12.43543 -10.696021,30.65963 -14.972092,44.4255 l -3.341339,10.75756 -1.405174,-6.89999 C 22.787604,145.36065 16.226768,121.94212 9.7198402,101.41387 6.6326465,91.674304 4.1070396,83.515997 4.1070396,83.28437 c 0,-0.231474 -0.3471362,-0.419522 -0.7709392,-0.419876 z"
       sodipodi:nodetypes="ccscccccccccccssscsssssccaaccccccccccsscscccscccccsscc" /></g></svg>
