<?xml version="1.0" encoding="utf-8"?>
<!-- Generator: Adobe Illustrator 24.0.3, SVG Export Plug-In . SVG Version: 6.00 Build 0)  -->
<svg version="1.1" id="Calque_2" xmlns="http://www.w3.org/2000/svg" xmlns:xlink="http://www.w3.org/1999/xlink" x="0px" y="0px"
	 viewBox="0 0 463.5 464.9" style="enable-background:new 0 0 463.5 464.9;" xml:space="preserve">
<style type="text/css">
	.st0{fill:#F4842D;}
	.st1{clip-path:url(#SVGID_2_);fill:url(#SVGID_3_);}
	.st2{fill:#FFFFFF;}
</style>
<path class="st0" d="M357.8,460.7H104.3C48,460.7,2,414.7,2,358.4V106.3C2,50,48,4,104.3,4h253.5C414,4,460.1,50,460.1,106.3v252.1
	C460.1,414.7,414,460.7,357.8,460.7z"/>
<g>
	<defs>
		<path id="SVGID_1_" d="M357.8,460.7H104.3C48,460.7,2,414.7,2,358.4V106.3C2,50,48,4,104.3,4h253.5C414,4,460.1,50,460.1,106.3
			v252.1C460.1,414.7,414,460.7,357.8,460.7z"/>
	</defs>
	<clipPath id="SVGID_2_">
		<use xlink:href="#SVGID_1_"  style="overflow:visible;"/>
	</clipPath>
	<linearGradient id="SVGID_3_" gradientUnits="userSpaceOnUse" x1="168.517" y1="171.8193" x2="544.7023" y2="549.1208">
		<stop  offset="0.1302" style="stop-color:#E85D27"/>
		<stop  offset="0.6867" style="stop-color:#F0772B"/>
	</linearGradient>
	<polygon class="st1" points="392.1,601.6 129.8,339.4 105.5,233.7 213.8,100.8 335.5,133.7 597.7,396 	"/>
</g>
<path class="st2" d="M377.3,229.8c-1.8-79.8-67-144-147.3-144c-81.4,0-147.3,66-147.3,147.3c0,56.3,31.6,105.3,78.1,130.1v-44.7
	v-84.4c0-0.6,0-1.1,0-1.7c0-34.1,24.5-62.5,56.8-68.7v24.5c-19.1,5.6-33,23.3-33,44.2c0,0.1,0,0.3,0,0.4h0v0.2
	c0.3,25.2,20.9,45.5,46.1,45.5c20.9,0,38.5-13.9,44.2-32.9h24.5c-6.2,32.3-34.6,56.7-68.7,56.7c-17.7,0-33.8-6.6-46.1-17.4v88.4
	c14.3,4.6,29.6,7.2,45.5,7.2c30.6,0,59-9.3,82.6-25.3v25.3h64.7L377.3,229.8L377.3,229.8z M230.6,259.3c-14.9,0-26.9-12-26.9-26.9
	s12-26.9,26.9-26.9s26.9,12,26.9,26.9S245.5,259.3,230.6,259.3z M300.6,232.6h-23.8c0-0.1,0-0.1,0-0.2c0-25.5-20.6-46.1-46.1-46.1
	c0,0-0.1,0-0.1,0v-23.8c0,0,0.1,0,0.1,0c38.6,0,69.9,31.3,69.9,69.9C300.6,232.5,300.6,232.5,300.6,232.6z M341.6,232.6h-23.6
	c0-0.1,0-0.1,0-0.2c0-48.2-39.1-87.3-87.3-87.3c0,0-0.1,0-0.1,0v-23.6c0,0,0.1,0,0.1,0c61.3,0,110.9,49.7,110.9,110.9
	C341.6,232.5,341.6,232.5,341.6,232.6z"/>
</svg>
