<svg enable-background="new 0 0 101.3 97" viewBox="9.4 5.8 82.5 82.5" xmlns="http://www.w3.org/2000/svg" xmlns:xlink="http://www.w3.org/1999/xlink"><clipPath id="a"><path d="m9.4 5.8h82.5v82.5h-82.5z"/></clipPath><path clip-path="url(#a)" d="m50.7 88.3c22.8 0 41.2-18.5 41.2-41.2s-18.5-41.3-41.2-41.3-41.3 18.4-41.3 41.2 18.5 41.3 41.3 41.3" fill="#db4615"/><g fill="#fff"><path clip-path="url(#a)" d="m31 38.6h-2.6c-.9 0-1.4.5-1.4 1.3v13.1c0 .9.5 1.4 1.4 1.4h2.6c.9 0 1.3-.5 1.3-1.4v-13.1c.1-.9-.4-1.3-1.3-1.3"/><path clip-path="url(#a)" d="m41.6 28h-2.6c-.9 0-1.4.5-1.4 1.3v16.1c0 .9.5 1.3 1.4 1.3h2.6c.9 0 1.3-.4 1.3-1.3v-16.1c0-.9-.4-1.3-1.3-1.3"/><path clip-path="url(#a)" d="m49.5 18.4c-.9 0-1.3.5-1.3 1.3v38.5c0 .9.4 1.3 1.3 1.3h2.6c.9 0 1.4-.4 1.4-1.3v-38.5c0-.9-.5-1.3-1.4-1.3z"/><path clip-path="url(#a)" d="m62.6 47.1h-2.6c-.9 0-1.4.5-1.4 1.3v25.1c0 .9.5 1.4 1.4 1.4h2.6c.9 0 1.3-.4 1.3-1.4v-25.1c.1-.9-.4-1.3-1.3-1.3"/><path clip-path="url(#a)" d="m73.1 47.1h-2.6c-.9 0-1.4.5-1.4 1.3v13.1c0 .9.5 1.4 1.4 1.4h2.6c.9 0 1.3-.5 1.3-1.4v-13.1c.1-.9-.4-1.3-1.3-1.3"/><path clip-path="url(#a)" d="m83.7 47.1h-2.6c-.9 0-1.4.5-1.4 1.3v4.6c0 .9.5 1.3 1.4 1.3h2.6c.9 0 1.3-.4 1.3-1.3v-4.6c0-.9-.4-1.3-1.3-1.3"/><path clip-path="url(#a)" d="m20.5 47.1h-2.6c-.9 0-1.4.5-1.4 1.3v4.6c0 .9.5 1.3 1.4 1.3h2.6c.9 0 1.3-.4 1.3-1.3v-4.6c.1-.9-.4-1.3-1.3-1.3"/></g></svg>