<svg width="134" height="35" viewBox="0 0 134 35" fill="none" xmlns="http://www.w3.org/2000/svg">
<g clip-path="url(#clip0)">
<path d="M40.5017 28.706C40.6451 28.83 40.8337 28.8924 41.0671 28.8924H41.8482C42.3686 28.8924 42.6292 28.6705 42.6292 28.227V21.9438C43.0359 22.5653 43.567 23.0577 44.2222 23.4212C44.877 23.7849 45.6561 23.9674 46.5589 23.9674C47.4082 23.9674 48.205 23.7939 48.9487 23.448C49.692 23.1018 50.3381 22.6225 50.8866 22.0103C51.4354 21.3979 51.8692 20.6792 52.1879 19.8538C52.5065 19.0286 52.666 18.1459 52.666 17.2048C52.666 16.2644 52.5065 15.3812 52.1879 14.5558C51.8692 13.7306 51.4354 13.0117 50.8866 12.3995C50.3376 11.7871 49.6916 11.3038 48.9483 10.9486C48.2045 10.5937 47.408 10.4162 46.5584 10.4162C45.7086 10.4162 44.9386 10.6204 44.248 11.0284C43.5575 11.4368 43.0087 11.9335 42.6019 12.5195L42.4959 11.3479C42.4597 10.9044 42.1994 10.6824 41.7143 10.6824H41.0138C40.5287 10.6824 40.2861 10.9044 40.2861 11.3479V28.227C40.2861 28.4218 40.3578 28.5817 40.5017 28.706ZM42.6024 17.2048C42.6024 16.5838 42.7039 16.0026 42.9074 15.4612C43.1107 14.92 43.385 14.4408 43.7298 14.0234C44.0746 13.6066 44.4814 13.2779 44.9502 13.0384C45.419 12.7987 45.9187 12.679 46.4495 12.679C46.9799 12.679 47.4794 12.7987 47.9482 13.0384C48.417 13.2779 48.8238 13.6066 49.1688 14.0234C49.5136 14.4408 49.7832 14.9288 49.9777 15.4879C50.1724 16.0469 50.2697 16.6371 50.2697 17.258C50.2697 17.8797 50.1724 18.4656 49.9777 19.0151C49.7832 19.5656 49.5136 20.0448 49.1688 20.453C48.8238 20.8617 48.417 21.1849 47.9482 21.4247C47.4794 21.6641 46.9799 21.7841 46.4495 21.7841C45.9187 21.7841 45.419 21.6641 44.9502 21.4247C44.4814 21.1849 44.0746 20.8617 43.7298 20.453C43.385 20.0448 43.1107 19.5656 42.9074 19.0151C42.7039 18.4656 42.6024 17.8797 42.6024 17.258V17.2048ZM55.5675 19.9205C55.9222 20.7549 56.4061 21.4779 57.0183 22.0901C57.6308 22.7025 58.3537 23.1862 59.1881 23.5412C60.0223 23.8959 60.9095 24.0736 61.8504 24.0736C62.791 24.0736 63.6782 23.8959 64.5126 23.5412C65.3468 23.1862 66.0742 22.7025 66.6959 22.0901C67.3169 21.4779 67.8048 20.7549 68.16 19.9205C68.515 19.0866 68.6925 18.1994 68.6925 17.258C68.6925 16.3176 68.515 15.4302 68.16 14.5958C67.8048 13.7621 67.3169 13.0342 66.6959 12.4128C66.0742 11.7918 65.3468 11.3038 64.5126 10.9486C63.6782 10.5937 62.791 10.4162 61.8504 10.4162C60.9095 10.4162 60.0223 10.5937 59.1881 10.9486C58.3537 11.3038 57.6308 11.7918 57.0183 12.4128C56.4061 13.0342 55.9222 13.7621 55.5675 14.5958C55.2123 15.4302 55.035 16.3176 55.035 17.258C55.035 18.1994 55.2123 19.0866 55.5675 19.9205ZM57.5643 15.448C57.8125 14.88 58.1452 14.3788 58.5624 13.9436C58.9794 13.5089 59.4719 13.1674 60.04 12.9187C60.608 12.6702 61.2114 12.546 61.8504 12.546C62.4893 12.546 63.0925 12.6702 63.6607 12.9187C64.2287 13.1674 64.7256 13.5089 65.1516 13.9436C65.5775 14.3788 65.9145 14.88 66.1635 15.448C66.4117 16.0159 66.5362 16.6191 66.5362 17.258C66.5362 17.897 66.4117 18.5007 66.1635 19.0684C65.9145 19.6368 65.5775 20.1335 65.1516 20.5595C64.7256 20.9854 64.2287 21.3227 63.6607 21.5714C63.0925 21.8198 62.4893 21.9438 61.8504 21.9438C61.2114 21.9438 60.608 21.8198 60.04 21.5714C59.4719 21.3227 58.9794 20.9854 58.5624 20.5595C58.1452 20.1335 57.8125 19.6368 57.5643 19.0684C57.3153 18.5007 57.1916 17.897 57.1916 17.258C57.1916 16.6191 57.3153 16.0159 57.5643 15.448V15.448ZM83.3344 5.34702C83.1924 5.23177 83.0062 5.17403 82.7757 5.17403H82.0035C81.5066 5.17403 81.2581 5.38772 81.2581 5.81463V12.5976C80.8321 11.9688 80.3084 11.4572 79.6875 11.062C79.0658 10.6668 78.2498 10.4697 77.238 10.4697C76.315 10.4697 75.4764 10.6471 74.7222 11.0021C73.9675 11.3571 73.3246 11.8403 72.7921 12.4527C72.2597 13.0649 71.847 13.7839 71.554 14.6091C71.2613 15.4345 71.1148 16.3176 71.1148 17.258C71.1148 18.1994 71.2613 19.0819 71.554 19.907C71.847 20.7325 72.2597 21.4512 72.7921 22.0636C73.3246 22.676 73.9675 23.155 74.7222 23.5012C75.4764 23.8472 76.315 24.0204 77.238 24.0204C78.2498 24.0204 79.0618 23.8339 79.674 23.4612C80.2864 23.0885 80.8144 22.6005 81.2581 21.9971V23.0885C81.2581 23.5324 81.5066 23.7542 82.0035 23.7542H82.8022C83.2989 23.7542 83.5476 23.5324 83.5476 23.0885V5.81274C83.5476 5.61798 83.4766 5.4625 83.3344 5.34702ZM81.179 19.0502C80.9845 19.5992 80.7102 20.081 80.3567 20.4972C80.0027 20.913 79.5826 21.2403 79.0963 21.4791C78.6095 21.7179 78.066 21.8376 77.4644 21.8376C76.8096 21.8376 76.2306 21.7179 75.7263 21.4791C75.2222 21.2403 74.8022 20.913 74.4659 20.4972C74.1299 20.081 73.8778 19.5992 73.7098 19.0502C73.5416 18.5016 73.4576 17.9176 73.4576 17.298C73.4576 16.6787 73.5416 16.09 73.7098 15.5327C73.8778 14.9754 74.1299 14.4888 74.4659 14.0731C74.8022 13.657 75.2222 13.3295 75.7263 13.0907C76.2306 12.852 76.8096 12.7322 77.4644 12.7322C78.066 12.7322 78.614 12.852 79.1096 13.0907C79.6046 13.3295 80.0247 13.657 80.3699 14.0731C80.7147 14.4888 80.9845 14.9754 81.179 15.5327C81.3738 16.09 81.4711 16.6787 81.4711 17.298C81.4711 17.9176 81.3738 18.5016 81.179 19.0502V19.0502ZM88.8456 10.6824H87.7272C87.3368 10.6824 87.1413 10.8779 87.1413 11.2683V23.1687C87.1413 23.5589 87.3368 23.7542 87.7272 23.7542H88.8456C89.2356 23.7542 89.4313 23.5589 89.4313 23.1687V11.2683C89.4313 10.8779 89.2356 10.6824 88.8456 10.6824V10.6824ZM87.1015 8.18344C87.43 8.50054 87.8247 8.65886 88.2864 8.65886C88.7656 8.65886 89.1651 8.50054 89.4846 8.18344C89.8038 7.86657 89.9638 7.47918 89.9638 7.02175C89.9638 6.56432 89.8038 6.1722 89.4846 5.84657C89.1651 5.52072 88.7656 5.35767 88.2864 5.35767C87.8247 5.35767 87.43 5.52072 87.1015 5.84657C86.7731 6.1722 86.6088 6.56432 86.6088 7.02175C86.6088 7.47918 86.7731 7.86657 87.1015 8.18344ZM101.918 24.8988C101.67 25.3423 101.352 25.7195 100.963 26.0305C100.573 26.3407 100.136 26.5804 99.6494 26.7492C99.1628 26.9176 98.6718 27.0021 98.1767 27.0021C97.7697 27.0021 97.3499 26.9309 96.9164 26.7891C96.4831 26.6469 96.0985 26.4604 95.7625 26.23C95.656 26.159 95.5587 26.1235 95.4705 26.1235C95.3112 26.1235 95.187 26.1767 95.0987 26.2832L94.3561 27.5611C94.3381 27.5786 94.3116 27.6231 94.2761 27.6945C94.2402 27.7651 94.2229 27.8183 94.2229 27.854C94.2229 27.9608 94.3291 28.0758 94.5424 28.2C95.0556 28.537 95.6087 28.79 96.2017 28.9589C96.7947 29.1274 97.463 29.2119 98.2068 29.2119C99.1094 29.2119 99.9544 29.0744 100.742 28.7994C101.53 28.5238 102.212 28.107 102.787 27.5478C103.362 26.9889 103.813 26.2875 104.141 25.4448C104.469 24.6014 104.632 23.6209 104.632 22.5028V11.4011C104.632 11.1884 104.553 11.0241 104.393 10.9086C104.233 10.7934 104.055 10.7359 103.86 10.7359H103.009C102.742 10.7359 102.556 10.7979 102.449 10.9221C102.343 11.0464 102.29 11.2061 102.29 11.4011V12.4927C101.881 11.9248 101.344 11.4411 100.679 11.0416C100.013 10.6424 99.2279 10.4427 98.3225 10.4427C97.4531 10.4427 96.6409 10.6204 95.8867 10.9751C95.1323 11.3303 94.4759 11.8138 93.9167 12.426C93.3577 13.0384 92.9183 13.7621 92.599 14.5958C92.2796 15.4302 92.1196 16.3176 92.1196 17.258C92.1196 18.1994 92.2748 19.0819 92.5855 19.907C92.896 20.7325 93.322 21.4512 93.8634 22.0636C94.4046 22.676 95.0571 23.1597 95.8202 23.5147C96.5832 23.8697 97.4176 24.0471 98.3225 24.0471C98.731 24.0471 99.1257 23.9804 99.5076 23.8472C99.8891 23.7142 100.253 23.5412 100.599 23.3282C100.945 23.1152 101.26 22.8715 101.544 22.596C101.828 22.3213 102.077 22.0503 102.29 21.7841V23.3815C102.29 23.9492 102.166 24.4551 101.918 24.8988V24.8988ZM94.7139 15.4932C94.9177 14.9444 95.2005 14.4626 95.5632 14.0463C95.9258 13.6303 96.3461 13.303 96.8234 13.0642C97.3012 12.8257 97.8055 12.7057 98.3362 12.7057C98.8843 12.7057 99.3971 12.8295 99.8749 13.0775C100.352 13.3255 100.773 13.6615 101.135 14.0863C101.498 14.5113 101.781 15.0019 101.984 15.5592C102.187 16.1167 102.29 16.7052 102.29 17.3243C102.29 17.9441 102.179 18.5236 101.958 19.0632C101.736 19.603 101.445 20.0765 101.082 20.4833C100.719 20.8908 100.3 21.2091 99.8219 21.4391C99.3446 21.6691 98.8491 21.7841 98.3362 21.7841C97.8055 21.7841 97.3012 21.6646 96.8234 21.4258C96.3461 21.1873 95.9258 20.8638 95.5632 20.4572C95.2005 20.0502 94.9177 19.5722 94.7139 19.0237C94.5109 18.4751 94.4094 17.8821 94.4094 17.2448C94.4094 16.6257 94.5109 16.0417 94.7139 15.4932V15.4932ZM116.133 23.6292C116.826 23.3332 117.473 22.9782 118.077 22.5648C118.165 22.5111 118.259 22.4394 118.356 22.3495C118.454 22.2595 118.512 22.1519 118.529 22.0262C118.529 21.9365 118.494 21.8556 118.423 21.7841L117.677 20.666C117.606 20.5595 117.509 20.5065 117.385 20.5065C117.189 20.5065 117.03 20.5685 116.906 20.6925C116.48 21.0477 115.996 21.3227 115.454 21.5179C114.913 21.7134 114.376 21.8106 113.844 21.8106C112.85 21.8106 111.984 21.4803 111.248 20.8198C110.511 20.1593 110.063 19.3005 109.904 18.2432H118.077C118.556 18.2432 118.964 18.1724 119.302 18.0302C119.639 17.8885 119.807 17.551 119.807 17.0186V16.6991C119.807 15.8297 119.648 15.013 119.328 14.2498C119.009 13.4869 118.578 12.8212 118.037 12.2533C117.495 11.6853 116.866 11.2371 116.147 10.9086C115.428 10.5804 114.66 10.4162 113.844 10.4162C112.974 10.4162 112.157 10.5937 111.395 10.9486C110.631 11.3038 109.966 11.7918 109.398 12.4128C108.83 13.0342 108.382 13.7621 108.053 14.5958C107.725 15.4302 107.561 16.3176 107.561 17.258C107.561 18.1994 107.725 19.0866 108.053 19.9205C108.382 20.7549 108.83 21.4779 109.398 22.0901C109.966 22.7025 110.631 23.1862 111.395 23.5412C112.157 23.8959 112.974 24.0736 113.844 24.0736C114.678 24.0736 115.441 23.925 116.133 23.6292V23.6292ZM110.529 14.8724C110.769 14.4325 111.052 14.0492 111.381 13.7233C111.71 13.3972 112.077 13.1419 112.486 12.9566C112.894 12.7717 113.329 12.679 113.791 12.679C114.234 12.679 114.664 12.7717 115.082 12.9566C115.498 13.1419 115.876 13.3972 116.213 13.7233C116.55 14.0492 116.834 14.4325 117.065 14.8724C117.296 15.3131 117.455 15.7797 117.544 16.2731H110.01C110.117 15.7797 110.29 15.3131 110.529 14.8724V14.8724ZM130.297 23.6292C130.989 23.3332 131.637 22.9782 132.24 22.5648C132.329 22.5111 132.422 22.4394 132.52 22.3495C132.617 22.2595 132.675 22.1519 132.693 22.0262C132.693 21.9365 132.657 21.8556 132.586 21.7841L131.841 20.666C131.77 20.5595 131.672 20.5065 131.548 20.5065C131.352 20.5065 131.193 20.5685 131.068 20.6925C130.643 21.0477 130.159 21.3227 129.618 21.5179C129.076 21.7134 128.539 21.8106 128.007 21.8106C127.013 21.8106 126.147 21.4803 125.411 20.8198C124.675 20.1593 124.227 19.3005 124.067 18.2432H132.24C132.719 18.2432 133.128 18.1724 133.464 18.0302C133.802 17.8885 133.971 17.551 133.971 17.0186V16.6991C133.971 15.8297 133.811 15.013 133.491 14.2498C133.172 13.4869 132.741 12.8212 132.2 12.2533C131.659 11.6853 131.028 11.2371 130.31 10.9086C129.591 10.5804 128.823 10.4162 128.007 10.4162C127.137 10.4162 126.321 10.5937 125.558 10.9486C124.795 11.3038 124.129 11.7918 123.561 12.4128C122.993 13.0342 122.545 13.7621 122.217 14.5958C121.888 15.4302 121.724 16.3176 121.724 17.258C121.724 18.1994 121.888 19.0866 122.217 19.9205C122.545 20.7549 122.993 21.4779 123.561 22.0901C124.129 22.7025 124.795 23.1862 125.558 23.5412C126.321 23.8959 127.137 24.0736 128.007 24.0736C128.841 24.0736 129.605 23.925 130.297 23.6292V23.6292ZM124.693 14.8724C124.932 14.4325 125.216 14.0492 125.544 13.7233C125.872 13.3972 126.241 13.1419 126.649 12.9566C127.057 12.7717 127.492 12.679 127.954 12.679C128.397 12.679 128.828 12.7717 129.245 12.9566C129.662 13.1419 130.039 13.3972 130.377 13.7233C130.713 14.0492 130.998 14.4325 131.228 14.8724C131.459 15.3131 131.619 15.7797 131.708 16.2731H124.173C124.28 15.7797 124.453 15.3131 124.693 14.8724" fill="#000000"/>
<path d="M17.4228 34.6682C26.9799 34.6682 34.7274 26.9209 34.7274 17.3636C34.7274 7.80645 26.9799 0.0589451 17.4228 0.0589451C7.86567 0.0589451 0.118164 7.80645 0.118164 17.3636C0.118164 26.9209 7.86567 34.6682 17.4228 34.6682Z" fill="#FF5630"/>
<path d="M9.19073 13.8249H8.1095C7.73181 13.8249 7.54297 14.014 7.54297 14.3912V19.9C7.54297 20.2777 7.73181 20.4663 8.1095 20.4663H9.19073C9.56794 20.4663 9.75702 20.2777 9.75702 19.9V14.3912C9.75702 14.014 9.56794 13.8249 9.19073 13.8249Z" fill="white"/>
<path d="M13.6067 9.37445H12.5255C12.1478 9.37445 11.959 9.56353 11.959 9.94074V16.7137C11.959 17.0912 12.1478 17.2803 12.5255 17.2803H13.6067C13.984 17.2803 14.173 17.0912 14.173 16.7137V9.94074C14.173 9.56353 13.984 9.37445 13.6067 9.37445Z" fill="white"/>
<path d="M16.9418 5.34011C16.5641 5.34011 16.3755 5.52919 16.3755 5.9064V22.0465C16.3755 22.4242 16.5641 22.6128 16.9418 22.6128H18.023C18.4005 22.6128 18.5895 22.4242 18.5895 22.0465V5.9064C18.5895 5.52919 18.4005 5.34011 18.023 5.34011H16.9418Z" fill="white"/>
<path d="M22.4388 17.3853H21.3575C20.9799 17.3853 20.791 17.5744 20.791 17.9516V28.4965C20.791 28.8744 20.9799 29.063 21.3575 29.063H22.4388C22.816 29.063 23.0051 28.8744 23.0051 28.4965V17.9516C23.0051 17.5744 22.816 17.3853 22.4388 17.3853Z" fill="white"/>
<path d="M26.8543 17.3852H25.7731C25.3954 17.3852 25.2065 17.5743 25.2065 17.9515V23.4603C25.2065 23.838 25.3954 24.0266 25.7731 24.0266H26.8543C27.2315 24.0266 27.4206 23.838 27.4206 23.4603V17.9515C27.4206 17.5743 27.2315 17.3852 26.8543 17.3852Z" fill="white"/>
<path d="M31.2708 17.3852H30.1896C29.8119 17.3852 29.623 17.5743 29.623 17.9515V19.9C29.623 20.2777 29.8119 20.4663 30.1896 20.4663H31.2708C31.648 20.4663 31.8371 20.2777 31.8371 19.9V17.9515C31.8371 17.5743 31.648 17.3852 31.2708 17.3852Z" fill="white"/>
<path d="M4.7752 17.3852H3.69397C3.31628 17.3852 3.12744 17.5743 3.12744 17.9515V19.9C3.12744 20.2777 3.31628 20.4663 3.69397 20.4663H4.7752C5.15241 20.4663 5.34149 20.2777 5.34149 19.9V17.9515C5.34149 17.5743 5.15241 17.3852 4.7752 17.3852Z" fill="white"/>
</g>
<defs>
<clipPath id="clip0">
<rect width="134" height="34.7868" fill="white"/>
</clipPath>
</defs>
</svg>
