<svg viewBox="0 0 32 32" fill="none" xmlns="http://www.w3.org/2000/svg">
<path fill="#335FFF" d="M28.876 3.12399C24.71 -1.04101 7.29 -1.04101 3.124 3.12399C1.041 5.20699 0 10.604 0 16C0 21.396 1.041 26.793 3.124 28.876C5.207 30.959 10.603 32 16 32C21.397 32 26.793 30.959 28.876 28.876C30.959 26.793 32 21.397 32 16C32 10.603 30.959 5.20699 28.876 3.12399Z"/>
<path fill="white" d="M20.6206 19.501C20.98 19.4206 21.9001 20.0032 21.981 20.3623C22.0212 20.5419 21.8956 20.8616 21.7153 21.1465C21.6982 21.1735 21.6777 21.1984 21.6597 21.2246L21.6685 21.2305C20.651 22.7565 18.9297 23.6944 16.9995 23.9355V26H18.4995C18.8367 26 19.1739 26.0652 19.3042 26.1953C19.4343 26.3255 19.4995 26.6628 19.4995 27C19.4995 27.3371 19.4343 27.6744 19.3042 27.8047C19.2065 27.9022 18.9925 27.9629 18.7495 27.9873L18.4995 28H13.4995L13.2505 27.9873C13.0071 27.9629 12.7925 27.9024 12.6948 27.8047C12.5647 27.6745 12.4995 27.3371 12.4995 27C12.4995 26.6629 12.5648 26.3256 12.6948 26.1953C12.8251 26.0653 13.1625 26 13.4995 26H14.9995V23.9355C13.0694 23.6944 11.3479 22.7565 10.3306 21.2305L10.3394 21.2236C10.3214 21.1975 10.3007 21.1724 10.2837 21.1455C10.1034 20.8606 9.97869 20.5409 10.019 20.3613C10.1002 20.0021 11.0192 19.4204 11.3784 19.501C11.558 19.5415 11.7938 19.7913 11.9741 20.0762C11.9895 20.1005 12.0016 20.1267 12.0161 20.1514C12.7717 21.2587 14.223 21.9999 15.9995 22C17.7806 21.9999 19.2348 21.2546 19.9888 20.1426C20.0015 20.1211 20.0125 20.0983 20.0259 20.0771C20.2062 19.7924 20.441 19.5415 20.6206 19.501ZM16.0005 10C16.2008 10 16.4104 10.0115 16.6226 10.0381C16.7442 10.0536 16.8645 10.0733 16.981 10.0996C16.951 10.8495 16.8609 11.5303 16.6909 11.8604C16.541 11.9503 16.2703 11.9999 16.0005 12C15.2005 12 14.6627 12.2869 14.4917 12.543C14.3884 12.698 14.2527 13.0549 14.1499 13.6318C14.0522 14.1804 14.0005 14.8339 14.0005 15.5C14.0005 16.1661 14.0522 16.8196 14.1499 17.3682C14.2527 17.9451 14.3884 18.302 14.4917 18.457C14.6627 18.7131 15.2005 19 16.0005 19C16.8004 18.9999 17.3384 18.7131 17.5093 18.457C17.6126 18.3018 17.7484 17.9449 17.8511 17.3682C17.9413 16.8612 17.9894 16.2646 17.9966 15.6514C17.9977 15.651 17.9994 15.6508 18.0005 15.6504C19.19 15.2003 19.7641 14.459 19.939 14.2061C19.978 14.6293 20.0005 15.0667 20.0005 15.5C20.0005 16.2598 19.9419 17.0331 19.8198 17.7188C19.7028 18.3756 19.5089 19.0617 19.1733 19.5654C18.4661 20.6269 17.1018 20.9999 16.0005 21C14.8991 21 13.5351 20.6269 12.8276 19.5654C12.492 19.0617 12.2982 18.3757 12.1812 17.7188C12.0591 17.0331 12.0005 16.2599 12.0005 15.5C12.0005 14.7401 12.0591 13.9669 12.1812 13.2812C12.2982 12.6243 12.492 11.9383 12.8276 11.4346C13.5351 10.3731 14.8991 10 16.0005 10ZM16.0005 4C17.1018 4.00011 18.4661 4.37306 19.1733 5.43457C19.5089 5.93835 19.7028 6.62437 19.8198 7.28125C19.9419 7.96687 20.0005 8.74017 20.0005 9.5C20.0005 10.2598 19.9419 11.0331 19.8198 11.7188C19.7028 12.3756 19.5089 13.0617 19.1733 13.5654C18.4661 14.6269 17.1018 14.9999 16.0005 15C15.7998 15 15.59 14.9876 15.3774 14.9609C15.2562 14.9454 15.1362 14.9266 15.02 14.9004C15.05 14.1504 15.1401 13.4696 15.3101 13.1396C15.4601 13.0498 15.7307 13 16.0005 13C16.8004 12.9999 17.3384 12.7131 17.5093 12.457C17.6126 12.3018 17.7484 11.9449 17.8511 11.3682C17.9487 10.8196 18.0005 10.1661 18.0005 9.5C18.0005 8.83389 17.9487 8.18043 17.8511 7.63184C17.7484 7.05515 17.6126 6.69817 17.5093 6.54297C17.3384 6.28692 16.8004 6.00012 16.0005 6C15.2005 6 14.6627 6.28692 14.4917 6.54297C14.3884 6.69804 14.2527 7.05492 14.1499 7.63184C14.0597 8.13855 14.0107 8.73469 14.0034 9.34766C14.0025 9.34801 14.0014 9.34912 14.0005 9.34961C12.8113 9.79947 12.2362 10.5395 12.061 10.793C12.0221 10.37 12.0005 9.93295 12.0005 9.5C12.0005 8.74014 12.0591 7.96689 12.1812 7.28125C12.2982 6.6243 12.492 5.93835 12.8276 5.43457C13.5351 4.37307 14.8991 4 16.0005 4Z"/>
</svg>