
<svg width="31px" height="30px" viewBox="0 0 31 30" version="1.1" xmlns="http://www.w3.org/2000/svg" xmlns:xlink="http://www.w3.org/1999/xlink">
    <g stroke="none" stroke-width="1" fill="none" fill-rule="evenodd">
        <g transform="translate(-1176.000000, -742.000000)">
            <g transform="translate(1176.000000, 742.000000)">
                <rect fill="#B1B1B1" x="0" y="0" width="31" height="30" rx="7"></rect>
                <path d="M7.82692308,20.3461538 C6.26646154,20.3461538 5,21.6126154 5,23.1730769 C5,24.7335385 6.26646154,26 7.82692308,26 C9.38738462,26 10.6538462,24.7335385 10.6538462,23.1730769 C10.6538462,21.6126154 9.38738462,20.3461538 7.82692308,20.3461538 Z M9.24038462,14.6923077 C8.68509615,14.6923077 8.23076923,15.1466346 8.23076923,15.7019231 C8.23076923,16.2572115 8.68509615,16.7115385 9.24038462,16.7115385 C12.0269231,16.7115385 14.2884615,18.9730769 14.2884615,21.7596154 C14.2884615,22.3149038 14.7427885,22.7692308 15.2980769,22.7692308 C15.8533654,22.7692308 16.3076923,22.3149038 16.3076923,21.7596154 C16.3076923,17.8524038 13.1475962,14.6923077 9.24038462,14.6923077 Z M9.21794872,5 C8.675,5 8.23076923,5.44423077 8.23076923,5.98717949 C8.23076923,6.53012821 8.675,6.97435897 9.21794872,6.97435897 C17.3917949,6.97435897 24.025641,13.6082051 24.025641,21.7820513 C24.025641,22.325 24.4698718,22.7692308 25.0128205,22.7692308 C25.5557692,22.7692308 26,22.325 26,21.7820513 C26,12.5124359 18.4875641,5 9.21794872,5 Z M9.22485207,9.84615385 C8.67810651,9.84615385 8.23076923,10.2934911 8.23076923,10.8402367 C8.23076923,11.3869822 8.67810651,11.8343195 9.22485207,11.8343195 C14.7121893,11.8343195 19.1656805,16.2878107 19.1656805,21.7751479 C19.1656805,22.3218935 19.6130178,22.7692308 20.1597633,22.7692308 C20.7065089,22.7692308 21.1538462,22.3218935 21.1538462,21.7751479 C21.1538462,15.1843787 15.8156213,9.84615385 9.22485207,9.84615385 Z" id="Shape" fill="#FFFFFF"></path>
            </g>
        </g>
    </g>
</svg>